# xmcd
#
# Track frame offsets:
#	150
#	14366
#	35884
#	52598
#	67568
#	82936
#	92055
#	101731
#	113125
#	120745
#	128871
#	138848
#	149117
#	157691
#	172423
#	185677
#	195466
#	210680
#	219406
#	230839
#	244703
#	254111
#	263311
#	280975
#	293172
#
# Disc length: 4033 seconds
# Revision: 3
# Processed by: cddbd v1.5.2PL0 Copyright (c) Steve Scherf et al.
# Submitted via: dBpowerAMP V12.0
#
DISCID=700fbf19
DTITLE=Nashville Fiddles - 100 Best of [CD3]
DYEAR=2005
DGENRE=Country
TTITLE0=Keep on the Sunny Side
TTITLE1=Red River Valley
TTITLE2=Will There Be Any Stars in My Crown
TTITLE3=America the Beautiful
TTITLE4=Nearer My God to Thee
TTITLE5=She'll Be Comin' Round the Mountain
TTITLE6=Cielito Lindo
TTITLE7=In the Garden
TTITLE8=Tennessee Rag
TTITLE9=Yellow Rose of Texas
TTITLE10=He's Got the Whole World in His Hands
TTITLE11=Take Me out to the Ball Game
TTITLE12=Poor Rebel Soldier
TTITLE13=Blessed Assurance
TTITLE14=Sweet Bunch of Daisies
TTITLE15=Old Gray Mule
TTITLE16=What a Friend We Have in Jesus
TTITLE17=Sail Away Ladies
TTITLE18=Church in the Wildwood
TTITLE19=Abide with Me
TTITLE20=Home on the Range
TTITLE21=Eighth of January
TTITLE22=Holy Holy Holy
TTITLE23=A Mighty Fortress Is Our God
TTITLE24=Billy in the Low Ground
EXTD=
EXTT0=
EXTT1=
EXTT2=
EXTT3=
EXTT4=
EXTT5=
EXTT6=
EXTT7=
EXTT8=
EXTT9=
EXTT10=
EXTT11=
EXTT12=
EXTT13=
EXTT14=
EXTT15=
EXTT16=
EXTT17=
EXTT18=
EXTT19=
EXTT20=
EXTT21=
EXTT22=
EXTT23=
EXTT24=
PLAYORDER=
